<svg width="24" height="24" viewBox="0 0 24 24" fill="none" xmlns="http://www.w3.org/2000/svg">
<path d="M11.146 0H15.07V18.166C13.057 18.548 11.579 18.701 9.974 18.701C5.183 18.701 2.686 16.535 2.686 12.381C2.686 8.379 5.336 5.781 9.439 5.781C10.076 5.781 10.56 5.831 11.146 5.984V0ZM11.146 9.143C10.7195 8.99891 10.2711 8.92989 9.821 8.939C7.833 8.939 6.687 10.162 6.687 12.304C6.687 14.394 7.783 15.54 9.796 15.54C10.229 15.54 10.586 15.515 11.146 15.438V9.142V9.143ZM21.314 6.06V15.158C21.314 18.292 21.085 19.796 20.397 21.095C19.76 22.344 18.919 23.134 17.186 24L13.542 22.267C15.275 21.452 16.116 20.737 16.651 19.642C17.212 18.521 17.39 17.221 17.39 13.807V6.059H21.314V6.06ZM17.39 0.021H21.314V4.047H17.39V0.021Z" fill="black"/>
</svg>
