<svg width="256" height="225" viewBox="0 0 256 225" fill="none" xmlns="http://www.w3.org/2000/svg">
<g clip-path="url(#clip0_305_90)">
<path d="M77.965 80.568L126.535 52.526C127.132 52.181 127.81 51.9993 128.5 51.9993C129.19 51.9993 129.868 52.181 130.465 52.526L179.035 80.568C179.632 80.913 180.128 81.4091 180.473 82.0064C180.818 82.6037 181 83.2813 181 83.971V140.055C181 141.458 180.25 142.755 179.035 143.458L130.465 171.5C129.868 171.845 129.19 172.027 128.5 172.027C127.81 172.027 127.132 171.845 126.535 171.5L77.965 143.458C77.3677 143.113 76.8717 142.617 76.5268 142.02C76.1819 141.422 76.0002 140.745 76 140.055V83.97C76.001 82.566 76.75 81.27 77.965 80.567" fill="#8080F2"/>
<path d="M254.417 107.417L196.323 6.35C194.213 2.696 190.315 0 186.095 0H69.906C65.686 0 61.786 2.696 59.676 6.35L1.58299 107.194C-0.527012 110.849 -0.527012 115.462 1.58299 119.117L59.676 219.356C61.786 223.01 65.686 224.878 69.906 224.878H186.094C190.314 224.878 194.213 223.066 196.322 219.411L254.416 119.009C256.528 115.356 256.528 111.071 254.416 107.417H254.417ZM206.312 156.017C206.312 157.502 205.418 158.877 204.13 159.621L130.131 202.314C129.494 202.679 128.772 202.871 128.038 202.871C127.304 202.871 126.582 202.679 125.945 202.314L51.889 159.621C50.602 158.877 49.701 157.503 49.701 156.016V70.628C49.701 69.141 50.589 67.768 51.877 67.024L125.872 24.33C126.509 23.9643 127.23 23.7719 127.964 23.7719C128.699 23.7719 129.42 23.9643 130.057 24.33L204.117 67.024C205.406 67.768 206.312 69.141 206.312 70.628V156.016V156.017Z" fill="#4B32C3"/>
</g>
<defs>
<clipPath id="clip0_305_90">
<rect width="256" height="225" fill="white"/>
</clipPath>
</defs>
</svg>
