<svg width="32" height="32" viewBox="0 0 32 32" fill="none" xmlns="http://www.w3.org/2000/svg">
<path d="M27 16H20V18H24.8C24.4568 19.4833 23.7455 20.8563 22.7319 21.9923C21.7182 23.1283 20.4348 23.9907 19 24.5L7.5 13C8.12122 11.2429 9.27258 9.72202 10.7951 8.64728C12.3177 7.57253 14.1363 6.99695 16 7C17.4448 7.01017 18.867 7.35929 20.1523 8.01929C21.4375 8.67929 22.5499 9.63173 23.4 10.8L24.9 9.5C23.6522 7.79531 21.9397 6.48626 19.9673 5.72949C17.995 4.97272 15.8464 4.8003 13.7786 5.23285C11.7108 5.6654 9.81139 6.6846 8.30774 8.16849C6.80409 9.65238 5.75986 11.5381 5.3 13.6L18.5 26.8C20.9111 26.1921 23.0529 24.8027 24.5907 22.8487C26.1285 20.8948 26.9758 18.4864 27 16V16ZM5 16.1C5.00318 17.5156 5.28771 18.9165 5.83706 20.2212C6.38641 21.5259 7.18962 22.7084 8.2 23.7C10.2138 25.7248 12.9444 26.8746 15.8 26.9L5 16.1Z" fill="white"/>
<path d="M16 2C13.2311 2 10.5243 2.82109 8.22202 4.35943C5.91973 5.89777 4.12532 8.08427 3.06569 10.6424C2.00607 13.2006 1.72882 16.0155 2.26901 18.7313C2.80921 21.447 4.14258 23.9416 6.10051 25.8995C8.05845 27.8574 10.553 29.1908 13.2687 29.731C15.9845 30.2712 18.7994 29.9939 21.3576 28.9343C23.9157 27.8747 26.1022 26.0803 27.6406 23.778C29.1789 21.4757 30 18.7689 30 16C29.9892 12.2903 28.5107 8.73562 25.8876 6.11245C23.2644 3.48929 19.7097 2.01082 16 2V2ZM8.20001 23.8C6.17516 21.7862 5.02544 19.0556 5.00001 16.2L15.9 27C13.0203 26.9488 10.2677 25.8049 8.20001 23.8V23.8ZM18.4 26.7L5.30001 13.6C5.75987 11.5381 6.8041 9.65238 8.30775 8.16849C9.81139 6.6846 11.7108 5.6654 13.7786 5.23285C15.8464 4.8003 17.995 4.97272 19.9674 5.72949C21.9397 6.48626 23.6522 7.79531 24.9 9.5L23.4 10.8C22.5499 9.63173 21.4375 8.67929 20.1523 8.01929C18.867 7.35929 17.4448 7.01017 16 7C14.1398 7.0114 12.3277 7.59264 10.808 8.66542C9.28817 9.7382 8.13369 11.251 7.50001 13L19 24.5C20.4348 23.9907 21.7182 23.1283 22.7319 21.9923C23.7455 20.8563 24.4568 19.4833 24.8 18H20V16H27C26.9865 18.4929 26.129 20.9077 24.5672 22.8508C23.0055 24.7938 20.8316 26.1507 18.4 26.7V26.7Z" fill="#663399"/>
</svg>
