<svg width="32" height="32" viewBox="0 0 32 32" fill="none" xmlns="http://www.w3.org/2000/svg">
<path d="M27.089 15.786C27.089 15.0948 26.8145 14.432 26.3258 13.9433C25.837 13.4546 25.1742 13.18 24.483 13.18C24.3915 13.1799 24.3001 13.1846 24.209 13.194L27.789 2.636H12.576L16.151 13.185C16.099 13.185 16.046 13.18 15.993 13.18C15.3707 13.1793 14.7687 13.4013 14.2958 13.8059C13.823 14.2105 13.5105 14.7709 13.415 15.3858C13.3194 16.0008 13.4471 16.6296 13.7748 17.1586C14.1026 17.6876 14.6089 18.0818 15.202 18.27C14.6477 19.2245 13.9575 20.0932 13.153 20.849C12.1059 21.85 10.8619 22.6221 9.50004 23.116C8.73705 22.7544 8.14032 22.1159 7.83107 21.3303C7.52181 20.5446 7.52324 19.6707 7.83504 18.886C7.91204 18.706 7.99004 18.524 8.06404 18.342C8.64509 18.2052 9.16158 17.8731 9.52721 17.4012C9.89283 16.9293 10.0854 16.3462 10.0728 15.7494C10.0603 15.1526 9.84323 14.5782 9.45802 14.1222C9.07282 13.6661 8.54279 13.3561 7.95648 13.2439C7.37017 13.1317 6.76312 13.2241 6.23675 13.5057C5.71038 13.7872 5.29658 14.2409 5.06451 14.7909C4.83243 15.3409 4.79613 15.9539 4.96168 16.5274C5.12722 17.1009 5.48458 17.6003 5.97404 17.942C5.1422 19.4503 4.50735 21.0591 4.08504 22.729C3.73104 24.864 4.08504 27.129 5.93004 28.41C10.23 31.391 14.899 26.562 19.821 25.349C21.605 24.909 23.563 24.98 25.134 24.07C25.7016 23.7467 26.1911 23.3025 26.5677 22.7688C26.9442 22.2351 27.1987 21.6251 27.313 20.982C27.4176 20.3692 27.3979 19.7417 27.2551 19.1366C27.1124 18.5316 26.8495 17.9614 26.482 17.46C26.8741 16.9915 27.0886 16.3999 27.088 15.789L27.089 15.786ZM18.6 15.8V15.791C18.6008 15.3425 18.4855 14.9015 18.2654 14.5108C18.0454 14.12 17.7279 13.7928 17.344 13.561L20.188 7.8L23.038 13.614C22.6805 13.8516 22.3874 14.174 22.1848 14.5525C21.9822 14.931 21.8765 15.3537 21.877 15.783V15.84L18.6 15.8Z" fill="#C63D14"/>
<path d="M27.726 15.786C27.725 15.0304 27.4605 14.2988 26.978 13.7172C26.4956 13.1357 25.8254 12.7406 25.083 12.6L28.677 2H11.689L15.289 12.621C14.6605 12.7615 14.0881 13.086 13.6449 13.5532C13.2016 14.0203 12.9076 14.609 12.8003 15.244C12.693 15.8789 12.7773 16.5315 13.0424 17.1184C13.3076 17.7052 13.7415 18.1998 14.289 18.539C13.8367 19.2108 13.3108 19.83 12.721 20.385C11.808 21.2585 10.735 21.9478 9.56098 22.415C9.01 22.0952 8.59234 21.5879 8.38418 20.9858C8.17601 20.3837 8.1912 19.7268 8.42698 19.135L8.46698 19.042L8.54098 18.867C9.20746 18.6359 9.7805 18.194 10.1733 17.6081C10.5661 17.0222 10.7573 16.3242 10.7179 15.6199C10.6786 14.9156 10.4108 14.2433 9.95508 13.7048C9.4994 13.1664 8.88067 12.791 8.19258 12.6357C7.50449 12.4804 6.78452 12.5535 6.14171 12.844C5.49889 13.1344 4.96824 13.6265 4.63011 14.2456C4.29197 14.8647 4.16478 15.5771 4.26779 16.2749C4.3708 16.9727 4.6984 17.618 5.20098 18.113C5.09298 18.344 4.97898 18.578 4.86198 18.819C4.21361 20.0111 3.74201 21.2912 3.46198 22.619C2.99698 25.419 3.74698 27.662 5.57298 28.927C6.55322 29.628 7.72889 30.0033 8.93398 30C11.066 30 13.223 28.929 15.334 27.881C16.8089 27.0789 18.365 26.4359 19.976 25.963C20.553 25.821 21.147 25.735 21.776 25.644C23.0574 25.5416 24.307 25.1925 25.456 24.616C26.1039 24.2459 26.6626 23.7378 27.0924 23.1278C27.5221 22.5178 27.8125 21.8207 27.943 21.086C28.1554 19.8377 27.9101 18.5548 27.252 17.473C27.5633 16.965 27.7277 16.3808 27.727 15.785L27.726 15.786ZM26.453 15.786C26.453 16.1756 26.3374 16.5565 26.121 16.8805C25.9045 17.2044 25.5968 17.4569 25.2369 17.606C24.8769 17.7551 24.4808 17.7942 24.0986 17.7181C23.7165 17.6421 23.3655 17.4545 23.09 17.179C22.8145 16.9035 22.6268 16.5525 22.5508 16.1703C22.4748 15.7882 22.5138 15.3921 22.6629 15.0321C22.812 14.6721 23.0645 14.3645 23.3885 14.148C23.7125 13.9315 24.0933 13.816 24.483 13.816C25.0053 13.8165 25.5061 14.0243 25.8754 14.3936C26.2447 14.7629 26.4524 15.2637 26.453 15.786V15.786ZM26.9 3.273L23.726 12.633C23.5901 12.6659 23.4564 12.7076 23.326 12.758L20.191 6.358L17.046 12.72C16.9091 12.6726 16.7691 12.6345 16.627 12.606L13.464 3.273H26.9ZM15.993 13.816C16.3826 13.816 16.7635 13.9315 17.0875 14.148C17.4114 14.3645 17.6639 14.6721 17.813 15.0321C17.9621 15.3921 18.0011 15.7882 17.9251 16.1703C17.8491 16.5525 17.6615 16.9035 17.386 17.179C17.1105 17.4545 16.7594 17.6421 16.3773 17.7181C15.9952 17.7942 15.5991 17.7551 15.2391 17.606C14.8791 17.4569 14.5714 17.2044 14.355 16.8805C14.1385 16.5565 14.023 16.1756 14.023 15.786C14.0235 15.2637 14.2312 14.7629 14.6006 14.3936C14.9699 14.0243 15.4707 13.8165 15.993 13.816V13.816ZM7.47098 13.835C7.86078 13.8352 8.24176 13.951 8.5657 14.1678C8.88964 14.3847 9.14198 14.6927 9.29078 15.053C9.43958 15.4132 9.47816 15.8096 9.40163 16.1918C9.3251 16.574 9.1369 16.9249 8.86085 17.2001C8.5848 17.4753 8.23331 17.6625 7.85086 17.7378C7.46842 17.8132 7.07221 17.7734 6.71239 17.6235C6.35257 17.4736 6.0453 17.2203 5.82948 16.8957C5.61366 16.5711 5.49899 16.1898 5.49998 15.8C5.50051 15.2777 5.70823 14.7769 6.07756 14.4076C6.44689 14.0383 6.94766 13.8305 7.46998 13.83L7.47098 13.835ZM26.688 20.869C26.5891 21.4202 26.3703 21.943 26.047 22.4002C25.7236 22.8575 25.3037 23.2381 24.817 23.515C23.8071 24.0054 22.7135 24.3002 21.594 24.384C20.962 24.475 20.309 24.569 19.67 24.727C17.9689 25.2196 16.326 25.8945 14.77 26.74C11.606 28.311 8.86998 29.668 6.29798 27.883C4.41098 26.575 4.49798 24.155 4.71798 22.829C4.97687 21.6223 5.40866 20.4593 5.99998 19.376L6.26998 18.817C6.53859 18.9244 6.82047 18.995 7.10798 19.027C6.85346 19.926 6.92458 20.8859 7.30878 21.7376C7.69299 22.5892 8.3656 23.2779 9.20798 23.682L9.45298 23.808L9.71198 23.716C11.1567 23.1945 12.4765 22.3771 13.587 21.316C14.3205 20.626 14.9648 19.8469 15.505 18.997C16.1961 19.1021 16.9027 18.981 17.5193 18.6516C18.1359 18.3222 18.6295 17.8023 18.9265 17.1694C19.2234 16.5366 19.3077 15.8246 19.1669 15.1399C19.026 14.4552 18.6676 13.8343 18.145 13.37L20.183 9.249L22.242 13.449C21.6561 14.0136 21.3042 14.7779 21.256 15.5901C21.2078 16.4023 21.467 17.2029 21.982 17.8328C22.497 18.4626 23.2301 18.8757 24.0356 18.9899C24.8412 19.104 25.6602 18.911 26.33 18.449C26.7013 19.1985 26.8256 20.0464 26.685 20.871L26.688 20.869Z" fill="white"/>
</svg>
