<svg width="32" height="32" viewBox="0 0 32 32" fill="none" xmlns="http://www.w3.org/2000/svg">
<path d="M18.05 29.6C18.092 29.505 18.198 29.439 18.275 29.359C19.45 28.127 20.635 26.906 21.794 25.659C22.1566 25.324 22.4369 24.9097 22.6128 24.4484C22.7887 23.9871 22.8555 23.4914 22.808 23C22.7716 22.7896 22.7238 22.5813 22.665 22.376C22.349 22.676 22.055 22.949 21.759 23.224C21.299 23.652 20.841 24.082 20.377 24.505C20.1034 24.784 19.7516 24.9734 19.3681 25.0482C18.9845 25.123 18.5874 25.0797 18.229 24.924C17.8662 24.7907 17.5505 24.5538 17.3212 24.2427C17.0919 23.9316 16.9589 23.56 16.939 23.174C16.9282 23.1243 16.9138 23.0756 16.896 23.028C16.543 23.328 16.205 23.604 15.87 23.888L8.90697 29.788C8.85897 29.829 8.80697 29.88 8.76197 29.92H18.045L18.031 29.911C17.981 29.876 18.007 29.692 18.05 29.6V29.6ZM8.33697 29.6C8.41954 29.4925 8.5192 29.3992 8.63197 29.324L18.268 21.149C18.9253 20.591 19.5796 20.03 20.231 19.466C20.3114 19.4099 20.3745 19.3323 20.413 19.242C20.5688 18.5631 20.5908 17.8603 20.478 17.173C20.378 17.243 20.324 17.273 20.278 17.322C19.489 18.028 18.704 18.74 17.911 19.442C17.6483 19.7064 17.3085 19.8807 16.9405 19.9398C16.5725 19.9989 16.1953 19.9398 15.863 19.771C15.524 19.611 15.2402 19.3537 15.0479 19.0319C14.8556 18.7101 14.7634 18.3384 14.783 17.964V17.64C14.638 17.746 14.532 17.817 14.433 17.897C10.5763 20.985 6.7203 24.0707 2.86497 27.154C2.69097 27.293 2.48297 27.603 2.25497 27.302C2.02697 27.001 2.37397 26.877 2.54897 26.737C6.65897 23.439 10.771 20.144 14.885 16.852C15.555 16.315 15.599 16.09 15.163 15.237L14.903 15.481C14.19 16.144 13.469 16.798 12.767 17.472C12.479 17.7498 12.1184 17.9404 11.7267 18.0219C11.335 18.1035 10.9282 18.0725 10.5533 17.9327C10.1785 17.7929 9.85078 17.5499 9.60812 17.2318C9.36547 16.9137 9.21773 16.5335 9.18197 16.135C9.04897 16.235 8.93397 16.308 8.82497 16.393L2.72497 21.121C2.61976 21.2242 2.49978 21.3111 2.36897 21.379C2.27024 21.4088 2.16423 21.4035 2.06897 21.364V29.925H8.32497C8.30171 29.8736 8.29069 29.8175 8.29277 29.7611C8.29485 29.7047 8.30998 29.6496 8.33697 29.6V29.6Z" fill="#FFCEBF"/>
<path d="M25.237 2.423C25.067 2.98 24.902 3.538 24.753 4.101C24.6154 4.49886 24.6314 4.93379 24.7979 5.32045C24.9644 5.70711 25.2694 6.0176 25.653 6.191C26.8264 6.8078 28.1487 7.08486 29.471 6.991V2.518C29.4563 2.41993 29.4618 2.3199 29.487 2.224C29.515 2.16976 29.5504 2.11962 29.592 2.075H25.233C25.3 2.153 25.277 2.29 25.237 2.423V2.423Z" fill="#FF6196"/>
<path d="M16.482 12.032C16.4613 12.5313 16.2867 13.0119 15.982 13.408C14.8931 14.8138 13.6425 16.0865 12.256 17.2C12.0325 17.407 11.7491 17.5378 11.4465 17.5737C11.144 17.6096 10.8379 17.5488 10.572 17.4C10.3074 17.287 10.0844 17.0948 9.93341 16.8498C9.78246 16.6049 9.71107 16.3192 9.72904 16.032C9.76107 15.6793 9.9075 15.3468 10.146 15.085C11.6964 13.6067 13.3761 12.2704 15.165 11.092C15.2822 11.0001 15.4253 10.9474 15.5741 10.9413C15.7228 10.9352 15.8697 10.976 15.994 11.058C16.1574 11.1594 16.2895 11.3041 16.3756 11.4761C16.4618 11.648 16.4986 11.8404 16.482 12.032V12.032ZM15.284 18.093C15.2608 17.872 15.2892 17.6485 15.3669 17.4403C15.4447 17.2321 15.5697 17.0448 15.732 16.893C17.25 15.4929 18.8787 14.2178 20.602 13.08C20.654 13.047 20.702 13.014 20.759 12.98C20.9096 12.8713 21.092 12.8158 21.2775 12.8221C21.4631 12.8285 21.6413 12.8963 21.784 13.015C21.9222 13.132 22.0199 13.2896 22.0634 13.4654C22.1068 13.6411 22.0938 13.8261 22.026 13.994C21.808 14.7202 21.4056 15.3775 20.858 15.902C19.746 16.9976 18.6124 18.0711 17.458 19.122C17.2842 19.3008 17.0558 19.4167 16.8089 19.4514C16.562 19.4862 16.3105 19.4378 16.094 19.314C15.8666 19.1958 15.6729 19.0218 15.5313 18.8082C15.3896 18.5946 15.3045 18.3485 15.284 18.093V18.093ZM22.5 18.754C22.22 19.054 21.932 19.34 21.663 19.647C21.5822 19.7657 21.5151 19.8931 21.463 20.027C21.611 20.071 21.784 20.187 21.904 20.146C22.515 19.941 23.111 19.695 23.782 19.436C23.636 19.772 23.526 20.082 23.371 20.366C22.7325 21.4391 21.9328 22.4078 21 23.238C20.6454 23.58 20.277 23.907 19.895 24.219C19.6927 24.3869 19.4495 24.498 19.1902 24.541C18.9308 24.584 18.6647 24.5574 18.419 24.4638C18.1734 24.3702 17.957 24.2131 17.792 24.0084C17.627 23.8037 17.5194 23.5589 17.48 23.299C17.464 23.1545 17.4768 23.0082 17.5176 22.8687C17.5585 22.7291 17.6266 22.5991 17.718 22.486C19.0789 21.0083 20.6341 19.7222 22.341 18.663C22.3618 18.655 22.3838 18.6506 22.406 18.65L22.5 18.754Z" fill="#FF87AF"/>
<path d="M24.7941 14.771L26.5051 7.171L27.7051 7.452L27.0861 9.333C26.5081 11.083 25.9231 12.833 25.3591 14.585C25.2491 14.909 25.1051 14.969 24.7941 14.771V14.771ZM22.8621 19.241C23.0431 18.55 23.2231 17.911 23.3751 17.265C23.5232 16.6385 23.805 16.0515 24.2011 15.544C24.4441 15.225 24.7171 15.352 24.9961 15.421C25.2541 15.484 25.3191 15.673 25.3301 15.921C25.3707 16.6068 25.1619 17.2842 24.7421 17.828C24.2423 18.4476 23.5962 18.9332 22.8621 19.241V19.241Z" fill="#FF6196"/>
<path d="M29.993 2.894C30.0079 2.67128 30.0023 2.44767 29.976 2.226C29.9554 2.16408 29.9145 2.1109 29.86 2.075C29.8156 2.0389 29.7637 2.01327 29.708 2C29.676 1.994 29.631 2.027 29.588 2.074C29.5464 2.11862 29.511 2.16876 29.483 2.223C29.4578 2.3189 29.4523 2.41893 29.467 2.517V6.989C28.1447 7.08286 26.8224 6.8058 25.649 6.189C25.2654 6.0156 24.9604 5.70511 24.7939 5.31845C24.6274 4.93179 24.6114 4.49686 24.749 4.099C24.898 3.536 25.063 2.978 25.233 2.421C25.273 2.288 25.296 2.151 25.233 2.073C25.198 2.03503 25.1496 2.01209 25.098 2.009C25.032 2.00971 24.968 2.03221 24.916 2.073C24.8412 2.11773 24.7817 2.18394 24.745 2.263C24.545 2.863 24.369 3.469 24.216 4.081C24.1583 4.32217 24.1427 4.57152 24.17 4.818C24.2087 5.26397 24.3746 5.68948 24.6479 6.04399C24.9212 6.39851 25.2906 6.66714 25.712 6.818C25.901 6.897 26.012 6.975 25.959 7.224C25.886 7.54 25.815 7.856 25.743 8.173C25.253 10.321 24.7657 12.47 24.281 14.62C24.2674 14.7159 24.2252 14.8054 24.16 14.877C23.8406 15.1309 23.5722 15.4431 23.369 15.797C23.1101 16.264 22.931 16.771 22.839 17.297C22.8214 17.4648 22.7607 17.6252 22.663 17.7627C22.5652 17.9002 22.4337 18.0102 22.281 18.082C21.864 18.293 21.481 18.566 21.018 18.85C21.0489 18.2932 21.0429 17.735 21 17.179C20.9648 17.008 20.9723 16.8309 21.0218 16.6634C21.0713 16.496 21.1614 16.3433 21.284 16.219C21.8939 15.6148 22.3287 14.8566 22.542 14.025C22.6057 13.8322 22.6232 13.6272 22.593 13.4264C22.5628 13.2256 22.4858 13.0348 22.3682 12.8693C22.2506 12.7038 22.0957 12.5683 21.9161 12.4737C21.7364 12.3792 21.537 12.3282 21.334 12.325C21.0053 12.3213 20.6827 12.413 20.405 12.589C19.4508 13.2406 18.5132 13.9161 17.593 14.615C17.046 15.027 16.531 15.483 16.001 15.915C15.9782 15.8905 15.9584 15.8633 15.942 15.834C15.9319 15.7604 15.912 15.6884 15.883 15.62C15.44 14.936 15.747 14.439 16.228 13.928C16.7291 13.4027 17.006 12.7029 17 11.977C17.0156 11.6071 16.8997 11.2437 16.673 10.951C16.5523 10.8024 16.4034 10.6791 16.235 10.588C15.9958 10.4571 15.7223 10.4024 15.4511 10.4314C15.18 10.4603 14.9242 10.5715 14.718 10.75L14.439 10.95C13.802 11.406 13.157 11.85 12.544 12.338C11.6491 13.0525 10.7735 13.7907 9.91802 14.552C9.51802 14.905 9.22602 15.387 8.81102 15.715C6.64702 17.424 4.46002 19.102 2.28102 20.791C2.2061 20.8357 2.1372 20.8898 2.07602 20.952C2.06972 20.9611 2.06436 20.9708 2.06002 20.981C2.01402 21.088 1.97502 21.265 2.02902 21.33C2.04226 21.3441 2.05826 21.3553 2.07602 21.363C2.17128 21.4025 2.27729 21.4078 2.37602 21.378C2.50683 21.3101 2.62681 21.2232 2.73202 21.12L8.83202 16.392C8.94102 16.307 9.05602 16.23 9.18902 16.134C9.22478 16.5325 9.37252 16.9127 9.61518 17.2308C9.85783 17.5489 10.1855 17.7919 10.5604 17.9317C10.9353 18.0715 11.342 18.1025 11.7337 18.0209C12.1254 17.9394 12.4861 17.7488 12.774 17.471C13.474 16.797 14.197 16.143 14.91 15.48L15.17 15.236C15.606 16.089 15.562 16.314 14.892 16.851C10.7747 20.1457 6.66035 23.441 2.54902 26.737C2.37402 26.877 2.02802 27.004 2.25502 27.302C2.48202 27.6 2.69102 27.293 2.86502 27.154C6.72235 24.0733 10.577 20.9887 14.429 17.9C14.529 17.82 14.634 17.749 14.779 17.643V17.967C14.7594 18.3414 14.8516 18.7131 15.044 19.0349C15.2363 19.3567 15.52 19.614 15.859 19.774C16.1913 19.9428 16.5686 20.0019 16.9366 19.9428C17.3046 19.8837 17.6443 19.7094 17.907 19.445C18.7 18.745 19.485 18.031 20.274 17.325C20.324 17.28 20.382 17.246 20.474 17.176C20.5869 17.8633 20.5648 18.5661 20.409 19.245C20.3706 19.3353 20.3075 19.4129 20.227 19.469C19.575 20.0323 18.9207 20.5933 18.264 21.152L8.63202 29.328C8.51925 29.4032 8.41959 29.4965 8.33702 29.604C8.31067 29.653 8.29589 29.7075 8.29381 29.7631C8.29173 29.8187 8.30241 29.8741 8.32502 29.925C8.37021 29.9589 8.42244 29.9821 8.47783 29.993C8.53323 30.0039 8.59038 30.0022 8.64502 29.988C8.68814 29.9755 8.72783 29.9532 8.76102 29.923C8.81102 29.883 8.86102 29.832 8.90602 29.791L15.869 23.891C16.204 23.607 16.542 23.327 16.895 23.031C16.9129 23.0786 16.9273 23.1273 16.938 23.177C16.958 23.563 17.0909 23.9346 17.3202 24.2457C17.5496 24.5568 17.8652 24.7937 18.228 24.927C18.5864 25.0827 18.9836 25.126 19.3671 25.0512C19.7506 24.9764 20.1024 24.787 20.376 24.508C20.84 24.085 21.298 23.655 21.758 23.227C22.058 22.952 22.348 22.676 22.664 22.379C22.7229 22.5843 22.7706 22.7926 22.807 23.003C22.853 23.4928 22.7854 23.9866 22.6096 24.446C22.4337 24.9054 22.1543 25.3181 21.793 25.652C20.634 26.9 19.449 28.121 18.274 29.352C18.197 29.432 18.091 29.498 18.049 29.593C18.007 29.688 17.98 29.874 18.03 29.914L18.044 29.923C18.1489 29.974 18.2668 29.9918 18.382 29.974C18.4143 29.9674 18.4431 29.9493 18.463 29.923C18.491 29.894 18.518 29.858 18.545 29.831C19.497 28.847 20.454 27.868 21.399 26.877C21.7805 26.4905 22.1391 26.0822 22.473 25.654C22.9085 25.1719 23.1972 24.5755 23.3053 23.9349C23.4133 23.2944 23.3362 22.6362 23.083 22.038C23.0558 21.9046 23.0824 21.7659 23.157 21.652C23.222 21.54 23.294 21.431 23.368 21.323C23.6048 21.0156 23.802 20.6796 23.955 20.323C24.2507 19.4478 24.7046 18.6343 25.294 17.923C25.565 17.5794 25.7515 17.177 25.8383 16.7481C25.9252 16.3192 25.91 15.8759 25.794 15.454C25.753 15.2936 25.753 15.1254 25.794 14.965C26.3 13.398 26.821 11.836 27.337 10.273L28.027 8.179L28.24 7.532C28.694 7.532 29.122 7.523 29.548 7.532C29.902 7.542 30.01 7.376 30.006 7.032C29.985 5.652 29.993 4.273 29.993 2.894V2.894ZM12.256 17.2C12.0324 17.407 11.7491 17.5378 11.4465 17.5737C11.144 17.6096 10.8379 17.5488 10.572 17.4C10.3074 17.287 10.0843 17.0948 9.93339 16.8498C9.78244 16.6049 9.71105 16.3192 9.72902 16.032C9.76105 15.6793 9.90748 15.3468 10.146 15.085C11.6964 13.6067 13.3761 12.2704 15.165 11.092C15.2627 11.023 15.3737 10.9753 15.491 10.952C15.5697 10.9375 15.6504 10.9375 15.729 10.952C15.8232 10.9703 15.9131 11.0063 15.994 11.058C16.1575 11.1595 16.2897 11.3044 16.3759 11.4765C16.462 11.6486 16.4988 11.8413 16.482 12.033C16.4613 12.5323 16.2866 13.0129 15.982 13.409C14.893 14.8144 13.6424 16.0868 12.256 17.2V17.2ZM17.456 19.129C17.2822 19.3078 17.0538 19.4237 16.8069 19.4584C16.5599 19.4932 16.3085 19.4448 16.092 19.321C15.8642 19.2026 15.6703 19.028 15.5285 18.8139C15.3868 18.5997 15.302 18.353 15.282 18.097C15.2588 17.876 15.2872 17.6525 15.3649 17.4443C15.4427 17.2361 15.5676 17.0488 15.73 16.897C17.248 15.4969 18.8766 14.2218 20.6 13.084C20.652 13.051 20.7 13.018 20.757 12.984C20.9076 12.8753 21.09 12.8198 21.2755 12.8261C21.4611 12.8325 21.6392 12.9003 21.782 13.019C21.9202 13.136 22.0179 13.2936 22.0614 13.4694C22.1048 13.6451 22.0917 13.8301 22.024 13.998C21.806 14.7242 21.4036 15.3815 20.856 15.906C19.753 17.008 18.606 18.069 17.458 19.125L17.456 19.129ZM23.367 20.37C22.7294 21.4414 21.9311 22.4087 21 23.238C20.6454 23.58 20.277 23.907 19.895 24.219C19.6927 24.3869 19.4495 24.498 19.1901 24.541C18.9308 24.584 18.6647 24.5574 18.419 24.4638C18.1734 24.3702 17.957 24.2131 17.792 24.0084C17.627 23.8037 17.5193 23.5589 17.48 23.299C17.464 23.1545 17.4768 23.0082 17.5176 22.8687C17.5585 22.7291 17.6266 22.5991 17.718 22.486C19.0788 21.0083 20.6341 19.7222 22.341 18.663C22.3618 18.655 22.3838 18.6506 22.406 18.65L22.506 18.75C22.226 19.05 21.938 19.336 21.669 19.643C21.5881 19.7617 21.521 19.8891 21.469 20.023C21.617 20.067 21.79 20.183 21.91 20.142C22.393 19.98 22.868 19.792 23.377 19.592L23.788 19.432C23.634 19.772 23.524 20.082 23.369 20.366L23.367 20.37ZM24.74 17.835C24.367 18.3099 23.8995 18.7022 23.367 18.987C23.2024 19.079 23.0334 19.165 22.86 19.245C23.038 18.564 23.216 17.933 23.367 17.295L23.373 17.269C23.5212 16.6425 23.8029 16.0555 24.199 15.548C24.442 15.229 24.715 15.356 24.994 15.425C25.252 15.488 25.317 15.677 25.328 15.925C25.369 16.6102 25.1609 17.2872 24.742 17.831L24.74 17.835ZM27.08 9.335C26.502 11.085 25.917 12.835 25.353 14.587C25.247 14.916 25.103 14.976 24.792 14.778L26.275 8.185L26.503 7.173L27.703 7.454L27.462 8.185L27.08 9.335Z" fill="black"/>
</svg>
