<svg width="32" height="32" viewBox="0 0 32 32" fill="none" xmlns="http://www.w3.org/2000/svg">
<path d="M26.47 5.7C25.1589 3.90098 23.2259 2.65355 21.0465 2.20004C18.8671 1.74653 16.5969 2.11933 14.677 3.246L7.96 7.4C7.05965 7.94258 6.28412 8.66929 5.68422 9.53251C5.08433 10.3957 4.67362 11.376 4.479 12.409C4.15965 14.1369 4.442 15.922 5.279 17.467C4.7054 18.3105 4.31344 19.264 4.128 20.267C3.93711 21.3141 3.96285 22.3892 4.20364 23.426C4.44443 24.4628 4.89516 25.4392 5.528 26.295C6.83913 28.0942 8.77202 29.342 10.9514 29.7962C13.1309 30.2505 15.4013 29.8786 17.322 28.753L24.04 24.6C24.9401 24.0571 25.7154 23.3303 26.3152 22.4671C26.9151 21.6039 27.326 20.6239 27.521 19.591C27.8424 17.8618 27.5599 16.0748 26.721 14.529C27.2952 13.6858 27.6875 12.7322 27.873 11.729C28.0638 10.6815 28.0378 9.60606 27.7965 8.56906C27.5552 7.53206 27.1037 6.55558 26.47 5.7" fill="#FF3E00"/>
<path d="M14.022 26.64C12.9717 26.9094 11.8648 26.8571 10.8445 26.49C9.82431 26.1229 8.93785 25.4578 8.3 24.581C7.91807 24.067 7.64573 23.48 7.49987 22.8565C7.354 22.2329 7.33771 21.5861 7.452 20.956C7.49003 20.7491 7.54318 20.5452 7.611 20.346L7.738 19.971L8.082 20.209C8.88054 20.7777 9.76889 21.2084 10.71 21.483L10.955 21.556L10.93 21.793C10.9012 22.1377 10.9974 22.4813 11.201 22.761C11.3924 23.0317 11.6618 23.2376 11.9732 23.3512C12.2846 23.4648 12.6233 23.4808 12.944 23.397C13.0889 23.3593 13.2274 23.3004 13.355 23.222L20.055 19.068C20.2181 18.9691 20.3588 18.8371 20.4678 18.6805C20.5768 18.524 20.6518 18.3463 20.688 18.159C20.724 17.9701 20.721 17.7759 20.679 17.5882C20.637 17.4006 20.5571 17.2235 20.444 17.068C20.2516 16.8035 19.9843 16.6028 19.6765 16.4919C19.3688 16.381 19.0349 16.365 18.718 16.446C18.5723 16.4837 18.4331 16.5431 18.305 16.622L15.733 18.206C15.3103 18.4676 14.8504 18.6638 14.369 18.788C13.3179 19.0581 12.2099 19.006 11.1887 18.6387C10.1675 18.2714 9.28026 17.6057 8.642 16.728C8.26261 16.2123 7.99309 15.6243 7.85015 15.0002C7.70722 14.3762 7.69389 13.7294 7.811 13.1C7.92904 12.48 8.17598 11.8917 8.53584 11.3731C8.8957 10.8546 9.36045 10.4175 9.9 10.09L16.608 5.936C17.0308 5.67471 17.4907 5.47883 17.972 5.355C19.0231 5.08434 20.1314 5.13595 21.1528 5.50312C22.1743 5.87029 23.0617 6.53606 23.7 7.414C24.0819 7.92804 24.3542 8.51499 24.5001 9.13853C24.6459 9.76206 24.6622 10.4089 24.548 11.039C24.5101 11.246 24.457 11.4499 24.389 11.649L24.262 12.024L23.918 11.787C23.1199 11.2175 22.2314 10.7868 21.29 10.513L21.045 10.439L21.07 10.202C21.0988 9.85711 21.0022 9.51342 20.798 9.234C20.6061 8.96914 20.339 8.76817 20.0313 8.65723C19.7237 8.54629 19.3897 8.53053 19.073 8.612C18.9279 8.64957 18.7893 8.70891 18.662 8.788L11.94 12.928C11.7768 13.0264 11.6363 13.1581 11.5275 13.3146C11.4188 13.4711 11.3443 13.6488 11.309 13.836C11.272 14.025 11.2746 14.2196 11.3166 14.4076C11.3586 14.5955 11.4391 14.7727 11.553 14.928C11.7455 15.1923 12.0129 15.3928 12.3206 15.5035C12.6284 15.6143 12.9622 15.6301 13.279 15.549C13.4245 15.5112 13.5636 15.4522 13.692 15.374L16.254 13.789C16.6766 13.5273 17.1365 13.3314 17.618 13.208C18.6692 12.9379 19.7772 12.9898 20.7985 13.3569C21.8199 13.724 22.7074 14.3895 23.346 15.267C23.7269 15.7815 23.9983 16.3686 24.1433 16.9921C24.2883 17.6156 24.3038 18.2622 24.189 18.892C24.0718 19.5127 23.8252 20.1018 23.4653 20.6209C23.1054 21.14 22.6402 21.5775 22.1 21.905L15.393 26.059C14.9704 26.3207 14.5105 26.5166 14.029 26.64" fill="white"/>
</svg>
